<svg id="Layer_1" xmlns="http://www.w3.org/2000/svg" viewBox="0 0 400 400" width="2500" height="2500">
  <style>
    .st0 { fill: #007acc; }
    .st1 { fill: #fff; }
    .outline { fill: none; stroke: #fff; stroke-width: 10; }
  </style>
  <rect class="outline" x="5" y="5" width="390" height="390" rx="20" ry="20"/>
  <path class="st0" d="M0 200V0h400v400H0"/>
  <path class="st1" d="M87.7 200.7V217h52v148h36.9V217h52v-16c0-9 0-16.3-.4-16.5 0-.3-31.7-.4-70.2-.4l-70 .3v16.4l-.3-.1zM321.4 184c10.2 2.4 18 7 25 14.3 3.7 4 9.2 11 9.6 12.8 0 .6-17.3 12.3-27.8 18.8-.4.3-2-1.4-3.6-4-5.2-7.4-10.5-10.6-18.8-11.2-12-.8-20 5.5-20 16 0 3.2.6 5 1.8 7.6 2.7 5.5 7.7 8.8 23.2 15.6 28.6 12.3 41 20.4 48.5 32 8.5 13 10.4 33.4 4.7 48.7-6.4 16.7-22 28-44.3 31.7-7 1.2-23 1-30.5-.3-16-3-31.3-11-40.7-21.3-3.7-4-10.8-14.7-10.4-15.4l3.8-2.4L251,315l11,14,15,8,11,6,2,3c13,6,30,5,39,-2c3,-3,5,-7,5,-12c0,-4,-1,-6,-3,-10c-3,-4,-9,-8,-27,-16c-20,-8,-29,-14,-37,-23c-4,-5,-9,-13,-11,-20c-1,-5,-2,-20,0,-25c4,-20,19,-34,41,-38c7,-1,23,-1,30,1l-.2,.2z"/>
</svg>